# xmcd
#
# Track frame offsets: 
#        150
#        11626
#        30419
#        52911
#        71396
#        103498
#        117475
#        135953
#        153692
#        171916
#        195665
#        221562
#
# Disc length: 3213 seconds
#
# Revision: 0
# Processed by: cddbd v1.5.1PL2 Copyright (c) Steve Scherf et al.
# Submitted via: ExactAudioCopy v0.95b4
#
DISCID=a50c8b0c
DTITLE=Brian Templeton - Bloozin'
DYEAR=2006
DGENRE=blues
TTITLE0=Bloozin'
TTITLE1=Stay Gone
TTITLE2=The Reign
TTITLE3=She's A Pleaser
TTITLE4=Let Me Down Easy
TTITLE5=Jean Nine Lives
TTITLE6=Evil Love
TTITLE7=Sugar Girl
TTITLE8=Singin In My Soul
TTITLE9=You Aint Coming Home
TTITLE10=He's A Mighty Good Leader
TTITLE11=An Answer For Isaac
EXTD=
EXTT0=
EXTT1=
EXTT2=
EXTT3=
EXTT4=
EXTT5=
EXTT6=
EXTT7=
EXTT8=
EXTT9=
EXTT10=
EXTT11=
PLAYORDER=
